<svg width="122" height="50" viewBox="0 0 122 50" fill="none" xmlns="http://www.w3.org/2000/svg">
<path d="M0 0H122V50H0V0Z" fill="#FFAE2B"/>
<path d="M27.7474 27.648H28.5394C28.7374 27.648 28.8364 27.549 28.8364 27.351V20.817C28.8364 20.7143 28.8108 20.641 28.7594 20.597C28.7154 20.5457 28.6421 20.52 28.5394 20.52H27.7474V20.168H30.9374V20.52H30.1454C30.0428 20.52 29.9658 20.5457 29.9144 20.597C29.8704 20.641 29.8484 20.7143 29.8484 20.817V27.351C29.8484 27.549 29.9474 27.648 30.1454 27.648H30.9374V28H27.7474V27.648ZM33.6495 21.367H33.6055V26.768C33.6055 27.0393 33.6679 27.2557 33.7925 27.417C33.9245 27.571 34.0932 27.648 34.2985 27.648H34.6945V28H32.0765V27.648H32.4725C32.6852 27.648 32.8539 27.571 32.9785 27.417C33.1032 27.2557 33.1655 27.0393 33.1655 26.768V20.817C33.1582 20.7143 33.1325 20.641 33.0885 20.597C33.0445 20.5457 32.9712 20.52 32.8685 20.52H32.0765V20.168H34.1555L37.9725 26.306V21.4C37.9725 21.1287 37.9102 20.916 37.7855 20.762C37.6609 20.6007 37.4959 20.52 37.2905 20.52H36.8945V20.168H39.5125V20.52H39.1165C38.9112 20.52 38.7425 20.6007 38.6105 20.762C38.4785 20.916 38.4125 21.1287 38.4125 21.4V28.198H37.9725L33.6495 21.367ZM43.7204 28.198C43.4124 28.198 43.108 28.132 42.8074 28C42.514 27.8607 42.2574 27.7103 42.0374 27.549C41.7294 27.3143 41.546 27.197 41.4874 27.197C41.3407 27.197 41.2454 27.3547 41.2014 27.67L41.1574 28.11H40.9044L40.8274 24.634H41.0914C41.1354 25.1767 41.2857 25.6973 41.5424 26.196C41.8064 26.6873 42.1327 27.087 42.5214 27.395C42.91 27.6957 43.3097 27.846 43.7204 27.846C44.3217 27.846 44.758 27.6993 45.0294 27.406C45.308 27.1127 45.4474 26.7607 45.4474 26.35C45.4474 25.9907 45.341 25.7083 45.1284 25.503C44.923 25.2977 44.6187 25.1143 44.2154 24.953L42.5434 24.282C41.964 24.0473 41.535 23.7467 41.2564 23.38C40.985 23.006 40.8494 22.5587 40.8494 22.038C40.8494 21.334 41.0547 20.8133 41.4654 20.476C41.876 20.1387 42.3894 19.97 43.0054 19.97C43.4894 19.97 44.0247 20.19 44.6114 20.63C44.6847 20.6813 44.758 20.729 44.8314 20.773C44.9047 20.8097 44.9707 20.828 45.0294 20.828C45.154 20.828 45.2274 20.74 45.2494 20.564L45.2934 20.168H45.5574L45.6674 23.028H45.4034C45.286 22.5 45.099 22.0307 44.8424 21.62C44.593 21.2093 44.2997 20.8903 43.9624 20.663C43.625 20.4357 43.2767 20.322 42.9174 20.322C42.5067 20.322 42.1694 20.4577 41.9054 20.729C41.6414 20.993 41.5094 21.3633 41.5094 21.84C41.5094 22.17 41.5937 22.4267 41.7624 22.61C41.931 22.7933 42.1804 22.951 42.5104 23.083L44.6334 23.93C45.1247 24.128 45.4914 24.4103 45.7334 24.777C45.9827 25.1437 46.1074 25.5287 46.1074 25.932C46.1074 26.3207 46.0194 26.6873 45.8434 27.032C45.6747 27.3767 45.4107 27.659 45.0514 27.879C44.6994 28.0917 44.2557 28.198 43.7204 28.198ZM48.8587 27.648H49.9147C50.1127 27.648 50.2117 27.549 50.2117 27.351V20.784C50.2117 20.6813 50.1897 20.608 50.1457 20.564C50.1017 20.5127 50.0247 20.487 49.9147 20.487H49.5187C49.0567 20.487 48.657 20.7217 48.3197 21.191C48.107 21.4917 47.964 21.8693 47.8907 22.324C47.8173 22.7713 47.7807 23.1013 47.7807 23.314H47.4727L47.5607 20.168H53.8747L53.9627 23.314H53.6547C53.6547 23.1013 53.618 22.7713 53.5447 22.324C53.4713 21.8693 53.3283 21.4917 53.1157 21.191C52.7783 20.7217 52.3787 20.487 51.9167 20.487H51.5207C51.4107 20.487 51.3337 20.5127 51.2897 20.564C51.2457 20.608 51.2237 20.6813 51.2237 20.784V27.351C51.2237 27.549 51.3227 27.648 51.5207 27.648H52.5767V28H48.8587V27.648ZM54.1583 27.648H54.5653C54.998 27.648 55.3133 27.3803 55.5113 26.845L57.8763 20.168H58.1513L60.5383 27.164C60.6117 27.3473 60.6997 27.4757 60.8023 27.549C60.905 27.615 61.037 27.648 61.1983 27.648H61.8143V28H58.4043V27.648H59.1303C59.2403 27.648 59.332 27.6223 59.4053 27.571C59.4787 27.5123 59.5153 27.4463 59.5153 27.373C59.5153 27.2777 59.5007 27.197 59.4713 27.131L58.9543 25.668H56.3803L56.1163 26.405C56.0137 26.6983 55.9623 26.911 55.9623 27.043C55.9623 27.2043 56.0027 27.3473 56.0833 27.472C56.164 27.5893 56.3033 27.648 56.5013 27.648H57.1723V28H54.1583V27.648ZM56.5013 25.316H58.8333L57.6893 21.961L56.5013 25.316ZM65.3764 28.198C64.7457 28.198 64.1957 28.0147 63.7264 27.648C63.2644 27.274 62.9087 26.7717 62.6594 26.141C62.4174 25.503 62.2964 24.7953 62.2964 24.018C62.2964 23.2773 62.421 22.599 62.6704 21.983C62.9197 21.367 63.2754 20.8793 63.7374 20.52C64.1994 20.1533 64.7384 19.97 65.3544 19.97C65.677 19.97 65.9814 20.0433 66.2674 20.19C66.5534 20.3367 66.788 20.4943 66.9714 20.663C67.1474 20.8243 67.2647 20.905 67.3234 20.905C67.382 20.905 67.4224 20.8867 67.4444 20.85C67.4737 20.8133 67.503 20.7547 67.5324 20.674L67.7414 20.058H68.0164L68.0604 23.468H67.7524C67.591 22.7713 67.382 22.1883 67.1254 21.719C66.8687 21.2423 66.5864 20.8903 66.2784 20.663C65.9777 20.4357 65.677 20.322 65.3764 20.322C64.8704 20.322 64.478 20.476 64.1994 20.784C63.9207 21.0847 63.7264 21.5063 63.6164 22.049C63.5137 22.5917 63.4624 23.27 63.4624 24.084C63.4624 24.898 63.5137 25.5763 63.6164 26.119C63.7264 26.6617 63.9207 27.087 64.1994 27.395C64.478 27.6957 64.8704 27.846 65.3764 27.846C65.6477 27.846 65.908 27.7507 66.1574 27.56C66.4067 27.362 66.6084 27.1127 66.7624 26.812C66.9237 26.5113 67.0044 26.2143 67.0044 25.921V24.931C67.0044 24.8283 66.9787 24.755 66.9274 24.711C66.8834 24.6597 66.81 24.634 66.7074 24.634H65.4864V24.282H69.1164V24.634H68.3134C68.2107 24.634 68.1337 24.6597 68.0824 24.711C68.0384 24.755 68.0164 24.8283 68.0164 24.931V28.143H67.6644V27.142C67.6644 27.0173 67.6497 26.9257 67.6204 26.867C67.591 26.801 67.5434 26.768 67.4774 26.768C67.3967 26.768 67.327 26.7973 67.2684 26.856C67.2097 26.9147 67.151 26.9953 67.0924 27.098C66.9237 27.3693 66.6854 27.6223 66.3774 27.857C66.0694 28.0843 65.7357 28.198 65.3764 28.198ZM75.8234 28.132C75.5814 28.132 75.376 28.0917 75.2074 28.011C75.046 27.9303 74.9177 27.7983 74.8224 27.615C74.6244 27.2337 74.518 26.5847 74.5034 25.668C74.496 25.1767 74.408 24.7697 74.2394 24.447C74.0707 24.117 73.7994 23.952 73.4254 23.952H72.2264V27.351C72.2264 27.4537 72.2484 27.5307 72.2924 27.582C72.3364 27.626 72.4134 27.648 72.5234 27.648H73.5024V28H70.1254V27.648H70.9174C71.1154 27.648 71.2144 27.549 71.2144 27.351V20.817C71.2144 20.7143 71.1887 20.641 71.1374 20.597C71.0934 20.5457 71.02 20.52 70.9174 20.52H70.1254V20.168H73.7334C74.4447 20.168 75.0277 20.3037 75.4824 20.575C75.937 20.8463 76.1644 21.2973 76.1644 21.928C76.1644 22.4707 75.959 22.907 75.5484 23.237C75.145 23.567 74.6574 23.7613 74.0854 23.82V23.864C74.5034 23.9447 74.8444 24.139 75.1084 24.447C75.3797 24.7477 75.5594 25.2647 75.6474 25.998C75.6987 26.416 75.7427 26.7203 75.7794 26.911C75.8234 27.1017 75.8747 27.2373 75.9334 27.318C75.9994 27.3913 76.0947 27.428 76.2194 27.428C76.5347 27.428 76.6924 27.032 76.6924 26.24H76.9674C76.9674 26.7167 76.8977 27.153 76.7584 27.549C76.619 27.9377 76.3074 28.132 75.8234 28.132ZM73.2934 23.6C73.9094 23.6 74.3457 23.4533 74.6024 23.16C74.8664 22.8593 74.9984 22.4487 74.9984 21.928C74.9984 21.4807 74.8774 21.136 74.6354 20.894C74.4007 20.6447 74.078 20.52 73.6674 20.52H72.5234C72.4207 20.52 72.3437 20.5457 72.2924 20.597C72.2484 20.641 72.2264 20.7143 72.2264 20.817V23.6H73.2934ZM77.8234 27.648H78.2304C78.663 27.648 78.9784 27.3803 79.1764 26.845L81.5414 20.168H81.8164L84.2034 27.164C84.2767 27.3473 84.3647 27.4757 84.4674 27.549C84.57 27.615 84.702 27.648 84.8634 27.648H85.4794V28H82.0694V27.648H82.7954C82.9054 27.648 82.997 27.6223 83.0704 27.571C83.1437 27.5123 83.1804 27.4463 83.1804 27.373C83.1804 27.2777 83.1657 27.197 83.1364 27.131L82.6194 25.668H80.0454L79.7814 26.405C79.6787 26.6983 79.6274 26.911 79.6274 27.043C79.6274 27.2043 79.6677 27.3473 79.7484 27.472C79.829 27.5893 79.9684 27.648 80.1664 27.648H80.8374V28H77.8234V27.648ZM80.1664 25.316H82.4984L81.3544 21.961L80.1664 25.316ZM87.9948 21.158H87.9288V26.768C87.9288 27.0393 87.9911 27.2557 88.1158 27.417C88.2478 27.571 88.4164 27.648 88.6218 27.648H89.0178V28H86.3998V27.648H86.7958C87.0011 27.648 87.1661 27.571 87.2908 27.417C87.4228 27.2557 87.4888 27.0393 87.4888 26.768V20.817C87.4888 20.7143 87.4631 20.641 87.4118 20.597C87.3678 20.5457 87.2944 20.52 87.1918 20.52H86.3998V20.168H88.7318L90.5248 26.229L92.1968 20.168H94.4738V20.52H93.6818C93.5791 20.52 93.5021 20.5457 93.4508 20.597C93.4068 20.641 93.3848 20.7143 93.3848 20.817V27.351C93.3848 27.549 93.4838 27.648 93.6818 27.648H94.4738V28H91.2838V27.648H92.0758C92.2738 27.648 92.3728 27.549 92.3728 27.351V20.861L90.3598 28.132H90.0958L87.9948 21.158Z" fill="#181511"/>
</svg>
