<svg width="20" height="16" viewBox="0 0 20 16" fill="none" xmlns="http://www.w3.org/2000/svg">
<path d="M15.1 10.475C14.45 10.475 13.8958 10.2458 13.4375 9.78748C12.9792 9.32914 12.75 8.77498 12.75 8.12498C12.75 7.47498 12.9792 6.92081 13.4375 6.46248C13.8958 6.00414 14.45 5.77498 15.1 5.77498C15.75 5.77498 16.3042 6.00414 16.7625 6.46248C17.2208 6.92081 17.45 7.47498 17.45 8.12498C17.45 8.77498 17.2208 9.32914 16.7625 9.78748C16.3042 10.2458 15.75 10.475 15.1 10.475ZM10.2 16V14.725C10.2 14.2916 10.2917 13.9208 10.475 13.6125C10.6583 13.3041 10.9167 13.0666 11.25 12.9C11.8667 12.5833 12.4917 12.35 13.125 12.2C13.7583 12.05 14.4167 11.975 15.1 11.975C15.7833 11.975 16.4417 12.0458 17.075 12.1875C17.7083 12.3291 18.3333 12.5666 18.95 12.9C19.2833 13.05 19.5417 13.2833 19.725 13.6C19.9083 13.9166 20 14.2916 20 14.725V16H10.2ZM8 7.97498C6.9 7.97498 6 7.62498 5.3 6.92498C4.6 6.22498 4.25 5.32498 4.25 4.22498C4.25 3.12498 4.6 2.22498 5.3 1.52498C6 0.824976 6.9 0.474976 8 0.474976C9.1 0.474976 10 0.824976 10.7 1.52498C11.4 2.22498 11.75 3.12498 11.75 4.22498C11.75 5.32498 11.4 6.22498 10.7 6.92498C10 7.62498 9.1 7.97498 8 7.97498ZM0 16V13.65C0 13.0833 0.141667 12.5625 0.425 12.0875C0.708333 11.6125 1.13333 11.25 1.7 11C2.81667 10.5 3.8875 10.125 4.9125 9.87498C5.9375 9.62498 6.96667 9.49998 8 9.49998C8.53333 9.49998 9.00833 9.52498 9.425 9.57498C9.84167 9.62498 10.2917 9.69998 10.775 9.79998L9.5 11.075C9.28333 11.0416 9.05 11.0208 8.8 11.0125C8.55 11.0041 8.28333 11 8 11C7.05 11 6.125 11.0958 5.225 11.2875C4.325 11.4791 3.35 11.8333 2.3 12.35C2.06667 12.4666 1.875 12.65 1.725 12.9C1.575 13.15 1.5 13.4 1.5 13.65V14.5H8.7V16H0ZM8 6.47498C8.65 6.47498 9.1875 6.26248 9.6125 5.83748C10.0375 5.41248 10.25 4.87498 10.25 4.22498C10.25 3.57498 10.0375 3.03748 9.6125 2.61248C9.1875 2.18748 8.65 1.97498 8 1.97498C7.35 1.97498 6.8125 2.18748 6.3875 2.61248C5.9625 3.03748 5.75 3.57498 5.75 4.22498C5.75 4.87498 5.9625 5.41248 6.3875 5.83748C6.8125 6.26248 7.35 6.47498 8 6.47498Z" fill="#FF8181"/>
</svg>
