<svg width="21" height="19" viewBox="0 0 21 19" fill="none" xmlns="http://www.w3.org/2000/svg">
<path d="M17.5496 18.3606C15.3024 18.3606 13.1445 17.9648 11.0761 17.1731C9.00767 16.3815 7.17757 15.2835 5.58581 13.879C3.99405 12.4745 2.72575 10.8146 1.78091 8.89939C0.836068 6.98417 0.363647 4.90296 0.363647 2.65577C0.363647 1.90671 0.572194 1.27681 0.989286 0.766088C1.40638 0.255363 1.99797 0 2.76406 0H5.13893C5.59858 0 5.95609 0.131937 6.21145 0.395812C6.46681 0.659687 6.64557 1.03847 6.74771 1.53218C6.84986 2.0429 6.96477 2.57065 7.09245 3.11542C7.22013 3.6602 7.3691 4.14539 7.53934 4.57099C7.69255 4.9285 7.73937 5.26473 7.67979 5.57967C7.6202 5.89462 7.4457 6.1968 7.15629 6.48621L5.16446 8.42697C5.98163 9.61866 7.11799 10.772 8.57356 11.8871C10.0291 13.0022 11.4464 13.764 12.8253 14.1726L14 11.7978C14.1532 11.4913 14.349 11.2828 14.5873 11.1721C14.8257 11.0615 15.1577 11.0232 15.5833 11.0572C16.0259 11.0913 16.4643 11.1083 16.8984 11.1083C17.3325 11.1083 17.8219 11.0913 18.3667 11.0572C18.8774 11.0232 19.3073 11.1593 19.6563 11.4658C20.0053 11.7722 20.2394 12.2659 20.3585 12.9469L20.7671 15.2451C20.7671 15.2451 20.7841 15.3899 20.8182 15.6793C20.8182 16.3943 20.5245 17.0199 19.9372 17.5562C19.3499 18.0924 18.554 18.3606 17.5496 18.3606Z" fill="#4036EB"/>
</svg>
