<svg width="14" height="20" viewBox="0 0 14 20" fill="none" xmlns="http://www.w3.org/2000/svg">
<path d="M7 14.55C8.73333 13.15 10.0417 11.8042 10.925 10.5125C11.8083 9.22083 12.25 8.01667 12.25 6.9C12.25 5.91667 12.0708 5.08333 11.7125 4.4C11.3542 3.71667 10.9125 3.15833 10.3875 2.725C9.8625 2.29167 9.29167 1.97917 8.675 1.7875C8.05833 1.59583 7.5 1.5 7 1.5C6.5 1.5 5.94167 1.59583 5.325 1.7875C4.70833 1.97917 4.1375 2.29167 3.6125 2.725C3.0875 3.15833 2.64583 3.71667 2.2875 4.4C1.92917 5.08333 1.75 5.91667 1.75 6.9C1.75 8.01667 2.19167 9.22083 3.075 10.5125C3.95833 11.8042 5.26667 13.15 7 14.55ZM7 16.45C4.71667 14.7333 3.02083 13.0917 1.9125 11.525C0.804167 9.95833 0.25 8.41667 0.25 6.9C0.25 5.76667 0.454167 4.77083 0.8625 3.9125C1.27083 3.05417 1.8 2.33333 2.45 1.75C3.1 1.16667 3.825 0.729167 4.625 0.4375C5.425 0.145833 6.21667 0 7 0C7.78333 0 8.575 0.145833 9.375 0.4375C10.175 0.729167 10.9 1.16667 11.55 1.75C12.2 2.33333 12.7292 3.05417 13.1375 3.9125C13.5458 4.77083 13.75 5.76667 13.75 6.9C13.75 8.41667 13.1958 9.95833 12.0875 11.525C10.9792 13.0917 9.28333 14.7333 7 16.45ZM7 8.5C7.48333 8.5 7.89583 8.32917 8.2375 7.9875C8.57917 7.64583 8.75 7.23333 8.75 6.75C8.75 6.26667 8.57917 5.85417 8.2375 5.5125C7.89583 5.17083 7.48333 5 7 5C6.51667 5 6.10417 5.17083 5.7625 5.5125C5.42083 5.85417 5.25 6.26667 5.25 6.75C5.25 7.23333 5.42083 7.64583 5.7625 7.9875C6.10417 8.32917 6.51667 8.5 7 8.5ZM0.25 20V18.5H13.75V20H0.25Z" fill="#FF8181"/>
</svg>
