<svg width="22" height="22" viewBox="0 0 22 22" fill="none" xmlns="http://www.w3.org/2000/svg">
<path d="M9.08004 0.439941C4.56879 0.439941 0.920044 4.08869 0.920044 8.59994C0.920044 13.1112 4.56879 16.7599 9.08004 16.7599C10.6907 16.7599 12.1813 16.2874 13.445 15.4849L19.34 21.3799L21.38 19.3399L15.56 13.5349C16.6063 12.1624 17.24 10.4618 17.24 8.59994C17.24 4.08869 13.5913 0.439941 9.08004 0.439941ZM9.08004 2.35994C12.5357 2.35994 15.32 5.14432 15.32 8.59994C15.32 12.0556 12.5357 14.8399 9.08004 14.8399C5.62442 14.8399 2.84004 12.0556 2.84004 8.59994C2.84004 5.14432 5.62442 2.35994 9.08004 2.35994Z" fill="white"/>
</svg>
