<svg width="30" height="30" viewBox="0 0 30 30" fill="none" xmlns="http://www.w3.org/2000/svg">
<path d="M15 0C6.73349 0 0 6.7335 0 15C0 23.2665 6.73349 30 15 30C23.2665 30 30 23.2665 30 15C30 6.7335 23.2665 0 15 0ZM15 3C21.6452 3 27 8.35481 27 15C27 21.6452 21.6452 27 15 27C8.35481 27 3 21.6452 3 15C3 8.35481 8.35481 3 15 3ZM6.66797 9.75C6.09647 9.75 6 10.0301 6 10.3301C6 10.8716 6.44925 13.7948 8.90625 17.1562C10.6868 19.5952 13.0338 21 15.1113 21C16.3698 21 16.5 20.6792 16.5 20.1797V17.9502C16.5 17.3487 16.6386 17.25 17.0391 17.25C17.3256 17.25 17.9062 17.4375 19.0312 18.75C20.3288 20.2635 20.5636 21 21.3076 21H23.2734C23.7294 21 23.9924 20.8095 24.0029 20.4375C24.0044 20.343 23.9905 20.2352 23.959 20.1182C23.8135 19.6862 23.1479 18.6315 22.3154 17.625C21.8534 17.067 21.3989 16.5143 21.1904 16.2158C21.0479 16.0193 20.994 15.882 21 15.75C21.006 15.612 21.078 15.4775 21.1875 15.293C21.168 15.293 23.7056 11.7322 23.9531 10.5322C23.9876 10.4182 24.0045 10.3118 24 10.2188C23.988 9.94725 23.8008 9.75 23.3613 9.75H21.3984C20.9034 9.75 20.6735 10.0491 20.54 10.3506C20.54 10.3506 19.3177 12.8693 17.9062 14.5312C17.4487 15.0112 17.2162 15 16.9688 15C16.8368 15 16.5 14.8404 16.5 14.3994V10.5117C16.5 9.99122 16.3721 9.75 15.9521 9.75H12.4658C12.1598 9.75 12 9.98897 12 10.2305C12 10.73 12.6735 10.8524 12.75 12.2549V14.9707C12.75 15.6307 12.6371 15.75 12.3896 15.75C11.7221 15.75 10.4078 13.4988 9.52734 10.5498C9.33684 9.96931 9.14637 9.75 8.65137 9.75H6.66797Z" fill="#4036EB"/>
</svg>
