<svg width="301" height="222" viewBox="0 0 301 222" fill="none" xmlns="http://www.w3.org/2000/svg">
<g clip-path="url(#clip0_3_6)">
<path d="M74.79 187.92C72.2607 187.921 69.7614 187.372 67.4649 186.312C65.1685 185.252 63.1299 183.706 61.49 181.78C38.53 154.85 0 105.14 0 74.78C0.227627 55.0956 8.20695 36.2946 22.2071 22.4554C36.2073 8.6162 55.0993 0.854797 74.785 0.854797C94.4707 0.854797 113.363 8.6162 127.363 22.4554C141.363 36.2946 149.342 55.0956 149.57 74.78C149.57 76.1061 149.043 77.3779 148.106 78.3155C147.168 79.2532 145.896 79.78 144.57 79.78C143.244 79.78 141.972 79.2532 141.034 78.3155C140.097 77.3779 139.57 76.1061 139.57 74.78C139.57 57.5979 132.744 41.1196 120.595 28.9701C108.445 16.8205 91.9671 9.995 74.785 9.995C57.603 9.995 41.1246 16.8205 28.9751 28.9701C16.8255 41.1196 10 57.5979 10 74.78C10 94.32 32.09 131.9 69.1 175.29C69.8003 176.111 70.6704 176.77 71.6501 177.222C72.6299 177.674 73.696 177.908 74.775 177.908C75.854 177.908 76.9201 177.674 77.8999 177.222C78.8796 176.77 79.7497 176.111 80.45 175.29C80.8761 174.79 81.3967 174.378 81.9818 174.079C82.567 173.78 83.2054 173.599 83.8605 173.546C84.5156 173.494 85.1746 173.571 85.8 173.773C86.4253 173.975 87.0047 174.299 87.505 174.725C88.0053 175.151 88.4168 175.672 88.716 176.257C89.0152 176.842 89.1962 177.48 89.2486 178.135C89.3011 178.791 89.224 179.45 89.0218 180.075C88.8196 180.7 88.4961 181.28 88.07 181.78C86.4328 183.704 84.3974 185.249 82.1046 186.309C79.8117 187.369 77.3161 187.919 74.79 187.92V187.92Z" fill="#4036EB"/>
<path d="M74.78 124.71C64.9048 124.71 55.2513 121.782 47.0404 116.295C38.8294 110.809 32.4298 103.011 28.6507 93.8874C24.8716 84.7639 23.8828 74.7246 25.8094 65.0391C27.7359 55.3537 32.4913 46.457 39.4742 39.4742C46.457 32.4913 55.3537 27.7359 65.0391 25.8094C74.7246 23.8828 84.7639 24.8716 93.8874 28.6507C103.011 32.4298 110.809 38.8294 116.295 47.0404C121.782 55.2513 124.71 64.9048 124.71 74.78C124.71 75.7083 124.341 76.5985 123.685 77.2549C123.028 77.9112 122.138 78.28 121.21 78.28C120.282 78.28 119.391 77.9112 118.735 77.2549C118.079 76.5985 117.71 75.7083 117.71 74.78C117.712 66.2888 115.196 57.9878 110.48 50.9266C105.764 43.8655 99.0598 38.3615 91.2155 35.1107C83.3713 31.8599 74.7392 31.0083 66.4109 32.6637C58.0826 34.319 50.4323 38.4069 44.4274 44.4104C38.4226 50.4138 34.3329 58.0632 32.6756 66.3911C31.0183 74.719 31.8679 83.3513 35.1169 91.1963C38.3659 99.0413 43.8683 105.747 50.9283 110.464C57.9883 115.182 66.2888 117.7 74.78 117.7C75.2619 117.664 75.7461 117.727 76.2023 117.886C76.6585 118.046 77.0769 118.298 77.4313 118.626C77.7856 118.955 78.0683 119.353 78.2616 119.796C78.455 120.239 78.5548 120.717 78.5548 121.2C78.5548 121.683 78.455 122.161 78.2616 122.604C78.0683 123.047 77.7856 123.445 77.4313 123.774C77.0769 124.102 76.6585 124.354 76.2023 124.514C75.7461 124.673 75.2619 124.736 74.78 124.7V124.71Z" fill="#FF8181"/>
<path d="M68.17 102.63C67.6857 102.63 67.204 102.559 66.74 102.42C61.9673 101.002 57.6458 98.3661 54.2003 94.7717C50.7549 91.1774 48.3042 86.7483 47.0891 81.9199C45.8741 77.0915 45.9365 72.03 47.2702 67.233C48.604 62.436 51.1631 58.0687 54.6961 54.5604C58.2291 51.0521 62.6143 48.5236 67.4206 47.2236C72.2268 45.9236 77.2886 45.8967 82.1084 47.1457C86.9282 48.3946 91.34 50.8764 94.91 54.3469C98.48 57.8175 101.085 62.1574 102.47 66.94C102.653 67.571 102.709 68.2318 102.636 68.8846C102.563 69.5374 102.363 70.1695 102.046 70.7448C101.728 71.32 101.301 71.8272 100.788 72.2373C100.275 72.6474 99.686 72.9525 99.055 73.135C98.424 73.3175 97.7632 73.374 97.1104 73.3012C96.4576 73.2283 95.8255 73.0276 95.2502 72.7105C94.675 72.3934 94.1678 71.9661 93.7577 71.453C93.3476 70.9399 93.0426 70.351 92.86 69.72C91.9567 66.6076 90.2592 63.7838 87.9343 61.5259C85.6094 59.2681 82.737 57.654 79.5995 56.8422C76.462 56.0304 73.1673 56.0488 70.039 56.8957C66.9108 57.7425 64.0567 59.3887 61.7572 61.6724C59.4577 63.9561 57.7919 66.7988 56.9234 69.9211C56.055 73.0434 56.0139 76.3379 56.804 79.481C57.5941 82.624 59.1884 85.5074 61.4301 87.8478C63.6719 90.1883 66.4839 91.9052 69.59 92.83C70.7471 93.1675 71.7434 93.9115 72.3954 94.9253C73.0474 95.939 73.3113 97.1542 73.1385 98.347C72.9656 99.5399 72.3677 100.63 71.4548 101.417C70.5418 102.204 69.3753 102.635 68.17 102.63Z" fill="#4036EB"/>
<path d="M78.21 82.23L94.39 142.61C94.5658 143.262 94.9378 143.844 95.4556 144.277C95.9734 144.71 96.6119 144.973 97.2845 145.031C97.9571 145.089 98.6312 144.939 99.2153 144.6C99.7995 144.262 100.265 143.752 100.55 143.14L113.55 115.14C113.873 114.429 114.441 113.858 115.15 113.53L143.2 100.58C143.812 100.295 144.322 99.8295 144.66 99.2453C144.999 98.6612 145.149 97.9871 145.091 97.3145C145.033 96.6419 144.77 96.0034 144.337 95.4856C143.904 94.9678 143.322 94.5958 142.67 94.42L82.23 78.2C81.6727 78.0525 81.0865 78.0541 80.53 78.2045C79.9735 78.3549 79.4663 78.6489 79.0592 79.0571C78.6521 79.4652 78.3593 79.9731 78.2103 80.53C78.0613 81.0868 78.0612 81.6731 78.21 82.23V82.23Z" fill="#FF8181"/>
<path d="M164.73 124.11C164.73 118.63 166.25 114.32 169.27 111.22C172.29 108.12 176.45 106.56 181.75 106.56C184.659 106.5 187.542 107.13 190.16 108.4C192.482 109.521 194.458 111.249 195.88 113.4C194.009 115.622 191.548 117.269 188.78 118.15C188.033 117.129 187.06 116.294 185.938 115.71C184.816 115.126 183.575 114.807 182.31 114.78C181.201 114.713 180.093 114.918 179.082 115.379C178.071 115.839 177.188 116.54 176.51 117.42C175.126 119.343 174.422 121.672 174.51 124.04C174.423 126.388 175.171 128.691 176.62 130.54C177.303 131.39 178.175 132.068 179.166 132.521C180.157 132.974 181.241 133.19 182.33 133.15C184.53 133.15 186.67 132.04 188.74 129.78C191.55 130.606 194.056 132.236 195.95 134.47C194.609 136.591 192.728 138.317 190.5 139.47C187.817 140.864 184.823 141.553 181.8 141.47C176.53 141.47 172.37 139.92 169.35 136.81C166.33 133.7 164.81 129.46 164.81 124.07L164.73 124.11Z" fill="#FF8181"/>
<path d="M214 132.46C215.056 134.741 215.559 137.238 215.47 139.75C212.949 140.649 210.296 141.126 207.62 141.16C206.538 141.17 205.469 140.924 204.5 140.44C203.532 139.957 202.692 139.251 202.05 138.38C200.64 136.56 199.94 133.92 199.94 130.44V89.51C203.171 88.86 206.499 88.86 209.73 89.51V129.35C209.73 130.85 210.08 131.81 210.73 132.28C211.763 132.78 212.952 132.856 214.04 132.49L214 132.46Z" fill="#FF8181"/>
<path d="M224.18 89C224.888 88.9787 225.592 89.1036 226.249 89.3669C226.907 89.6301 227.503 90.0261 228 90.53C228.502 91.0643 228.894 91.693 229.151 92.3796C229.409 93.0662 229.527 93.7972 229.5 94.53C229.532 96.0011 229.007 97.4299 228.03 98.53C227.54 99.0491 226.95 99.4643 226.297 99.7508C225.643 100.037 224.938 100.189 224.224 100.198C223.51 100.206 222.802 100.071 222.142 99.7996C221.481 99.5286 220.882 99.1274 220.38 98.62C219.445 97.462 218.935 96.0185 218.935 94.53C218.935 93.0415 219.445 91.598 220.38 90.44C220.881 89.928 221.485 89.5279 222.152 89.2659C222.819 89.004 223.534 88.8861 224.25 88.92L224.18 89ZM229 140.57C225.849 141.308 222.571 141.308 219.42 140.57V107.57C222.591 106.93 225.859 106.93 229.03 107.57V140.57H229Z" fill="#FF8181"/>
<path d="M233.18 124.11C233.18 118.63 234.7 114.32 237.72 111.22C240.74 108.12 244.9 106.56 250.2 106.56C253.109 106.5 255.992 107.13 258.61 108.4C260.932 109.521 262.908 111.249 264.33 113.4C262.461 115.62 260.004 117.266 257.24 118.15C256.49 117.13 255.516 116.295 254.392 115.711C253.269 115.127 252.026 114.808 250.76 114.78C249.651 114.713 248.543 114.918 247.532 115.379C246.52 115.839 245.638 116.54 244.96 117.42C243.576 119.343 242.872 121.672 242.96 124.04C242.873 126.388 243.621 128.691 245.07 130.54C245.753 131.39 246.625 132.068 247.616 132.521C248.607 132.974 249.691 133.19 250.78 133.15C252.98 133.15 255.12 132.04 257.2 129.78C260.006 130.608 262.509 132.238 264.4 134.47C263.059 136.591 261.178 138.317 258.95 139.47C256.267 140.864 253.273 141.553 250.25 141.47C244.98 141.47 240.82 139.92 237.8 136.81C234.78 133.7 233.26 129.46 233.26 124.07L233.18 124.11Z" fill="#FF8181"/>
<path d="M300.34 134.74C298.628 137.465 296.107 139.587 293.13 140.81L280.71 127.57H277.1V140.51C273.943 141.19 270.677 141.19 267.52 140.51V91.32C270.678 90.65 273.942 90.65 277.1 91.32V118.75H280L291.46 104.57C294.607 105.724 297.404 107.67 299.58 110.22L288.41 123.29L300.34 134.74Z" fill="#FF8181"/>
<path d="M118.85 152.91C124.13 152.91 128.72 155.07 132.58 159.35C136.44 163.63 138.37 169.18 138.37 175.97C138.404 179.688 137.725 183.378 136.37 186.84C135.026 190.22 132.803 193.179 129.93 195.41C126.913 197.753 123.178 198.979 119.36 198.88C114.319 198.99 109.43 197.153 105.71 193.75V220.67C102.738 221.247 99.6823 221.247 96.71 220.67V154.26C99.665 153.525 102.755 153.525 105.71 154.26V158.73C107.321 156.821 109.347 155.305 111.633 154.296C113.918 153.287 116.404 152.813 118.9 152.91H118.85ZM117.85 190.78C119.402 190.775 120.931 190.412 122.319 189.718C123.707 189.024 124.915 188.019 125.85 186.78C128.05 184.12 129.13 180.53 129.13 176.02C129.13 171.51 128.01 168.02 125.77 165.22C124.75 163.887 123.429 162.815 121.915 162.09C120.402 161.365 118.738 161.009 117.06 161.05C114.585 161.013 112.168 161.801 110.19 163.29C108.271 164.687 106.701 166.507 105.6 168.61V183.73C108.88 188.397 112.97 190.73 117.87 190.73L117.85 190.78Z" fill="#4036EB"/>
<path d="M162.28 189.85C163.262 192.1 163.749 194.535 163.71 196.99C158.377 198.95 154.21 199.063 151.21 197.33C148.21 195.597 146.707 192.203 146.7 187.15V130.5C149.711 129.84 152.829 129.84 155.84 130.5V186.11C155.84 188.11 156.34 189.39 157.31 189.93C158.28 190.47 159.93 190.43 162.24 189.78L162.28 189.85Z" fill="#4036EB"/>
<path d="M185.89 152.91C188.507 152.888 191.114 153.225 193.64 153.91C196.08 154.551 198.407 155.563 200.54 156.91C202.649 158.278 204.371 160.165 205.54 162.39C206.8 164.819 207.435 167.524 207.39 170.26V197.45C204.538 198.14 201.562 198.14 198.71 197.45V191.2C195.59 196.207 190.5 198.713 183.44 198.72C180.783 198.742 178.144 198.285 175.65 197.37C173.19 196.419 171.051 194.789 169.48 192.67C167.698 190.293 166.784 187.378 166.89 184.41C166.89 179.59 168.59 175.97 171.89 173.58C175.531 171.099 179.867 169.842 184.27 169.99C189.32 169.897 194.307 171.12 198.74 173.54V170.3C198.775 168.959 198.471 167.63 197.858 166.436C197.245 165.243 196.341 164.223 195.23 163.47C192.491 161.693 189.26 160.829 186 161C182.048 160.889 178.149 161.931 174.78 164C172.78 162.65 171.38 160.34 170.65 157.06C175.233 154.267 180.525 152.857 185.89 153V152.91ZM185 191.91C189.05 191.91 192.25 190.83 194.56 188.63C196.828 186.543 198.251 183.696 198.56 180.63C194.981 178.222 190.731 177.007 186.42 177.16C183.822 177.055 181.248 177.693 179 179C178.011 179.594 177.203 180.446 176.66 181.464C176.118 182.482 175.862 183.628 175.92 184.78C175.882 185.807 176.109 186.826 176.578 187.74C177.048 188.654 177.744 189.432 178.6 190C180.502 191.271 182.753 191.918 185.04 191.85L185 191.91Z" fill="#4036EB"/>
<path d="M214 176C214 169.06 216 163.46 220 159.26C224 155.06 229.45 152.94 236.28 152.94C239.956 152.893 243.594 153.683 246.92 155.25C250.001 156.688 252.639 158.925 254.56 161.73C252.738 163.856 250.379 165.455 247.73 166.36C246.459 164.646 244.799 163.259 242.886 162.313C240.973 161.368 238.863 160.89 236.73 160.92C232.45 160.92 229.13 162.31 226.73 165.12C224.251 168.19 222.975 172.058 223.14 176C222.983 179.913 224.308 183.741 226.85 186.72C228.104 188.112 229.652 189.207 231.381 189.926C233.111 190.646 234.979 190.972 236.85 190.88C238.971 190.883 241.064 190.401 242.97 189.472C244.876 188.544 246.545 187.192 247.85 185.52C250.517 186.286 252.886 187.849 254.64 190C252.866 192.801 250.34 195.047 247.35 196.48C243.948 198.122 240.207 198.941 236.43 198.87C229.61 198.87 224.17 196.78 220.16 192.62C216.15 188.46 214.16 182.9 214.16 175.96L214 176Z" fill="#4036EB"/>
<path d="M281.07 153C287.44 153 292.41 155.24 295.96 159.67C299.51 164.1 300.96 170.59 300.32 179.11H269.62C270.08 183.01 271.413 186.043 273.62 188.21C275.82 190.37 278.79 191.45 282.62 191.45C287.475 191.373 292.121 189.457 295.62 186.09C297.832 187.462 299.465 189.596 300.21 192.09C295.433 196.497 289.159 198.924 282.66 198.88C275.75 198.88 270.32 196.79 266.31 192.59C262.3 188.39 260.31 182.76 260.31 175.7C260.31 168.64 262.12 163.16 265.79 159.04C269.46 154.92 274.58 152.87 281.17 152.87L281.07 153ZM269.54 172.36H291.76C291.18 164.36 287.67 160.41 281.19 160.41C274.21 160.43 270.31 164.4 269.54 172.38V172.36Z" fill="#4036EB"/>
</g>
<defs>
<clipPath id="clip0_3_6">
<rect width="300.47" height="221.1" fill="white"/>
</clipPath>
</defs>
</svg>
