<svg width="18" height="17" viewBox="0 0 18 17" fill="none" xmlns="http://www.w3.org/2000/svg">
<path d="M15.8968 0.748645C15.6136 0.718602 15.3057 0.762841 14.9963 0.885142C14.6128 1.03599 8.60321 3.56397 3.00122 5.92221L1.15019 6.70124C0.43343 6.99186 0.0715332 7.46451 0.0715332 8.10116C0.0715332 8.5469 0.260178 9.15149 1.16018 9.50774L4.28462 10.7595C4.55479 11.57 5.18231 13.4519 5.33998 13.9522C5.43373 14.2488 5.67053 14.996 6.26882 15.1707C6.39155 15.2125 6.51962 15.234 6.65001 15.234C7.02757 15.234 7.29942 15.0582 7.43237 14.956L9.41823 13.2764L11.8302 15.5069C11.9231 15.6015 12.4148 16.0796 13.0753 16.0796C13.8995 16.0796 14.5247 15.3935 14.6551 14.7296C14.7258 14.3657 17.0521 2.68786 17.0521 2.68956C17.2609 1.75292 16.8854 1.26703 16.6442 1.05992C16.4376 0.883078 16.1801 0.778688 15.8968 0.748645ZM15.3325 2.58969C15.0112 4.20048 13.2597 12.9928 12.9938 14.2602L9.46817 10.9992L7.07615 13.025L7.73866 10.4333C7.73866 10.4333 12.309 5.807 12.5843 5.53769C12.8059 5.32206 12.8523 5.24647 12.8523 5.17147C12.8523 5.07176 12.801 5.00002 12.6825 5.00002C12.576 5.00002 12.4313 5.10211 12.3546 5.14983C11.3801 5.75735 7.23078 8.12125 5.1885 9.28302L2.22552 8.0995L3.66373 7.49525C7.32765 5.95264 13.853 3.20503 15.3325 2.58969Z" fill="#4036EB"/>
</svg>
